<?xml version="1.0" standalone="no"?>
<!DOCTYPE svg PUBLIC "-//W3C//DTD SVG 20010904//EN"
 "http://www.w3.org/TR/2001/REC-SVG-20010904/DTD/svg10.dtd">
<svg version="1.0" xmlns="http://www.w3.org/2000/svg"
 width="2051.000000pt" height="658.000000pt" viewBox="0 0 2051.000000 658.000000"
 preserveAspectRatio="xMidYMid meet">

<g transform="translate(0.000000,658.000000) scale(0.100000,-0.100000)"
fill="#000000" stroke="none">
<path d="M12857 6552 c-22 -24 -21 -65 1 -85 40 -36 102 -9 102 45 0 51 -69
78 -103 40z"/>
<path d="M13250 6540 c-41 -41 -13 -100 48 -100 52 0 73 74 30 104 -30 21 -54
20 -78 -4z"/>
<path d="M12470 6510 c-39 -39 -12 -100 44 -100 38 0 59 19 59 55 0 57 -64 84
-103 45z"/>
<path d="M13 4998 c3 -1459 4 -1495 24 -1603 92 -491 307 -901 652 -1245 198
-198 393 -336 656 -465 320 -158 600 -232 964 -255 275 -17 568 11 828 80 466
124 920 404 1217 751 254 296 411 589 500 930 74 284 70 177 73 1822 l4 1477
-106 0 -105 0 0 -1399 c0 -1431 -2 -1511 -40 -1706 -102 -523 -429 -1018 -875
-1327 -568 -393 -1261 -518 -1921 -347 -374 97 -734 297 -1011 563 -362 347
-590 804 -642 1288 -7 64 -11 585 -11 1513 l0 1415 -105 0 -106 0 4 -1492z"/>
<path d="M430 5080 c0 -932 4 -1444 11 -1508 47 -431 259 -852 585 -1160 315
-299 741 -497 1187 -552 115 -14 400 -14 514 0 261 32 466 97 720 225 401 204
683 493 879 900 100 208 151 387 174 614 6 66 10 598 10 1497 l0 1394 -105 0
-104 0 -4 -1447 c-3 -1440 -4 -1449 -25 -1562 -103 -538 -456 -983 -977 -1236
-266 -129 -514 -185 -825 -185 -313 0 -545 52 -820 182 -559 265 -933 771
-1000 1353 -6 57 -10 599 -10 1493 l0 1402 -105 0 -105 0 0 -1410z"/>
<path d="M853 5038 l3 -1453 23 -100 c64 -284 197 -522 410 -736 312 -313 718
-478 1179 -479 352 0 702 108 979 303 320 226 549 578 620 957 17 89 18 192
18 1525 l0 1430 -102 3 -102 3 -4 -1428 c-4 -1572 0 -1482 -66 -1676 -129
-378 -458 -696 -864 -832 -165 -55 -256 -69 -467 -69 -213 -1 -282 8 -444 56
-218 64 -418 181 -582 340 -197 191 -312 395 -371 658 -15 68 -17 211 -20
1513 l-4 1437 -105 0 -105 0 4 -1452z"/>
<path d="M1274 6477 c-11 -29 3 -2841 14 -2896 54 -258 194 -473 418 -641 212
-160 429 -236 704 -247 339 -14 610 74 862 277 176 142 302 330 360 535 l23
80 3 1453 2 1453 -102 -3 -103 -3 -5 -1435 c-6 -1593 0 -1461 -74 -1615 -44
-94 -95 -162 -187 -251 -132 -126 -266 -201 -448 -251 -87 -24 -113 -26 -271
-26 -158 0 -185 2 -275 26 -316 85 -578 315 -669 587 -14 41 -30 122 -35 179
-7 67 -11 571 -11 1447 l0 1344 -100 0 c-74 0 -102 -3 -106 -13z"/>
<path d="M5290 6484 c0 -8 1499 -2395 1515 -2412 9 -10 23 5 70 78 31 50 58
97 59 103 0 7 -314 513 -699 1125 l-700 1112 -122 0 c-68 0 -123 -3 -123 -6z"/>
<path d="M5793 6476 c8 -20 1269 -2028 1272 -2024 1 2 30 46 64 99 l62 97
-579 918 -578 919 -123 3 c-106 2 -123 0 -118 -12z"/>
<path d="M6290 6481 c0 -8 1002 -1605 1020 -1624 3 -4 28 27 54 69 26 43 54
87 62 99 13 20 -15 67 -439 741 l-453 719 -122 3 c-71 1 -122 -1 -122 -7z"/>
<path d="M6786 6478 c19 -33 768 -1224 773 -1230 3 -4 34 38 68 94 l61 101
-29 46 c-15 25 -163 260 -327 521 l-299 475 -127 3 c-102 2 -126 0 -120 -10z"/>
<path d="M8457 6438 c-202 -317 -3008 -4780 -3013 -4792 -6 -15 5 -16 117 -14
l124 3 1527 2425 c840 1334 1528 2426 1528 2428 0 1 -56 2 -125 2 l-124 0 -34
-52z"/>
<path d="M8965 6453 c-13 -21 -701 -1113 -1529 -2428 l-1505 -2390 121 -3 c89
-2 125 1 133 10 17 18 3033 4811 3041 4832 5 14 -7 16 -115 16 l-121 0 -25
-37z"/>
<path d="M9437 6408 c-28 -46 -716 -1138 -1529 -2428 l-1476 -2345 121 -3 c88
-2 124 1 133 10 14 16 3033 4814 3041 4834 4 11 -17 14 -116 14 l-121 0 -53
-82z"/>
<path d="M8457 4063 l-1527 -2428 122 -3 c108 -2 124 -1 136 15 24 33 3042
4832 3042 4838 0 3 -55 5 -123 5 l-123 0 -1527 -2427z"/>
<path d="M13630 6470 c-24 -24 -25 -48 -4 -78 23 -34 84 -28 102 10 30 64 -48
118 -98 68z"/>
<path d="M16440 6463 c-40 -15 -55 -87 -24 -117 24 -25 90 -21 108 6 19 27 21
68 4 91 -14 18 -64 30 -88 20z"/>
<path d="M20302 6454 c-16 -11 -22 -25 -22 -54 0 -49 21 -70 69 -70 47 0 65
19 65 67 0 61 -62 93 -112 57z"/>
<path d="M12095 6410 c-20 -23 -23 -63 -5 -85 19 -23 76 -19 94 7 21 30 20 54
-4 78 -25 25 -62 26 -85 0z"/>
<path d="M14022 6359 c-12 -5 -27 -20 -34 -34 -25 -55 35 -105 86 -72 61 40
17 131 -52 106z"/>
<path d="M16597 6312 c-21 -23 -22 -76 -1 -96 9 -9 32 -16 54 -16 48 0 70 21
70 65 0 18 -7 41 -16 49 -22 22 -87 21 -107 -2z"/>
<path d="M11750 6267 c-36 -18 -41 -78 -8 -101 30 -21 54 -20 78 4 28 28 25
64 -6 89 -31 24 -31 25 -64 8z"/>
<path d="M14363 6180 c-48 -19 -39 -101 12 -114 62 -16 101 58 55 104 -22 22
-33 23 -67 10z"/>
<path d="M16440 6183 c-40 -15 -55 -87 -24 -117 24 -25 90 -21 108 6 19 27 21
68 4 91 -14 18 -64 30 -88 20z"/>
<path d="M20302 6174 c-16 -11 -22 -25 -22 -54 0 -49 21 -70 69 -70 47 0 65
19 65 67 0 61 -62 93 -112 57z"/>
<path d="M16766 6104 c-9 -8 -16 -31 -16 -49 0 -44 22 -65 69 -65 63 0 92 56
55 108 -18 27 -84 31 -108 6z"/>
<path d="M11407 6052 c-20 -22 -22 -73 -5 -90 18 -18 73 -14 91 6 23 25 21 58
-3 82 -25 25 -62 26 -83 2z"/>
<path d="M14673 5945 c-63 -44 -1 -142 63 -100 36 23 41 61 13 91 -26 28 -46
30 -76 9z"/>
<path d="M16417 5902 c-25 -28 -22 -87 5 -106 72 -51 153 30 102 102 -20 28
-83 31 -107 4z"/>
<path d="M20296 5904 c-9 -9 -16 -32 -16 -54 0 -50 32 -76 84 -66 28 5 37 13
46 40 12 38 1 80 -25 90 -30 11 -73 6 -89 -10z"/>
<path d="M16930 5891 c-14 -27 -13 -84 2 -99 18 -18 93 -15 109 4 7 9 13 31
13 49 0 48 -19 65 -70 65 -33 0 -46 -5 -54 -19z"/>
<path d="M11950 5675 l0 -195 74 0 74 0 6 73 c3 39 7 88 9 107 l2 35 1028 3
1027 2 0 85 0 85 -1110 0 -1110 0 0 -195z"/>
<path d="M11130 5807 c-35 -18 -46 -41 -34 -74 22 -64 114 -48 114 21 0 48
-39 74 -80 53z"/>
<path d="M17100 5685 c-6 -8 -12 -30 -12 -50 0 -49 16 -65 66 -65 53 0 66 13
66 65 0 23 -5 46 -12 53 -17 17 -93 15 -108 -3z"/>
<path d="M16422 5654 c-28 -20 -31 -83 -4 -107 45 -40 122 -6 122 53 0 59 -67
90 -118 54z"/>
<path d="M20297 5652 c-23 -25 -22 -85 1 -105 23 -21 71 -22 97 -3 14 10 20
26 20 56 0 30 -6 46 -20 56 -27 20 -79 18 -98 -4z"/>
<path d="M15031 5543 c-34 -43 -10 -93 45 -93 56 0 83 61 44 100 -28 28 -64
25 -89 -7z"/>
<path d="M10862 5504 c-26 -18 -30 -75 -7 -94 37 -31 105 0 105 47 0 27 -33
63 -58 63 -10 0 -28 -7 -40 -16z"/>
<path d="M17269 5474 c-7 -9 -13 -31 -13 -49 0 -48 19 -65 70 -65 48 0 64 17
64 65 0 48 -16 65 -64 65 -28 0 -48 -6 -57 -16z"/>
<path d="M16422 5374 c-28 -20 -31 -83 -4 -107 45 -40 122 -6 122 53 0 59 -67
90 -118 54z"/>
<path d="M20297 5372 c-23 -25 -22 -85 1 -105 23 -21 71 -22 97 -3 14 10 20
26 20 56 0 30 -6 46 -20 56 -27 20 -79 18 -98 -4z"/>
<path d="M17437 5262 c-21 -23 -22 -76 -1 -96 9 -9 32 -16 54 -16 48 0 70 21
70 65 0 18 -7 41 -16 49 -22 22 -87 21 -107 -2z"/>
<path d="M14007 5223 c-42 -11 -57 -19 -53 -29 15 -40 58 -213 71 -285 18
-103 19 -246 1 -319 -28 -119 -101 -217 -194 -260 -111 -53 -109 -53 -699 -57
-628 -5 -732 1 -828 46 -78 36 -122 80 -162 162 -78 158 -85 359 -22 566 11
36 19 66 17 68 -9 7 -102 45 -112 45 -21 0 -79 -165 -97 -275 -17 -109 -7
-322 20 -406 40 -125 150 -260 255 -313 121 -61 100 -60 830 -63 741 -4 759
-3 886 59 73 36 153 110 194 181 111 189 117 492 17 807 -31 97 -32 97 -124
73z"/>
<path d="M15246 5225 c-9 -9 -16 -29 -16 -44 0 -62 80 -82 110 -28 13 24 13
30 0 55 -19 33 -69 42 -94 17z"/>
<path d="M10672 5179 c-35 -13 -48 -53 -29 -83 22 -33 52 -41 82 -22 32 21 40
52 21 80 -17 28 -43 36 -74 25z"/>
<path d="M16440 5113 c-25 -9 -40 -35 -40 -69 0 -43 23 -64 70 -64 44 0 70 26
70 70 0 33 -10 47 -43 59 -31 12 -34 12 -57 4z"/>
<path d="M20309 5106 c-31 -15 -39 -84 -14 -110 21 -21 88 -21 106 0 17 21 17
81 -1 99 -21 20 -63 25 -91 11z"/>
<path d="M17606 5054 c-9 -8 -16 -31 -16 -49 0 -44 22 -65 69 -65 63 0 92 56
55 108 -18 27 -84 31 -108 6z"/>
<path d="M15396 4858 c-9 -12 -16 -30 -16 -40 0 -25 36 -58 63 -58 47 0 78 68
47 105 -19 23 -76 19 -94 -7z"/>
<path d="M17770 4841 c-14 -27 -13 -84 2 -99 18 -18 93 -15 109 4 7 9 13 31
13 49 0 48 -19 65 -70 65 -33 0 -46 -5 -54 -19z"/>
<path d="M10506 4804 c-36 -36 -6 -104 46 -104 25 0 58 36 58 63 0 49 -70 76
-104 41z"/>
<path d="M16445 4813 c-29 -7 -45 -32 -45 -69 0 -43 23 -64 70 -64 44 0 70 26
70 72 0 25 -22 58 -40 58 -5 0 -14 2 -22 4 -7 2 -22 2 -33 -1z"/>
<path d="M20325 4813 c-33 -8 -45 -24 -45 -60 0 -56 15 -73 64 -73 52 0 70 17
70 66 0 50 -39 79 -89 67z"/>
<path d="M17940 4635 c-6 -8 -12 -30 -12 -50 0 -49 16 -65 66 -65 53 0 66 13
66 65 0 23 -5 46 -12 53 -17 17 -93 15 -108 -3z"/>
<path d="M16445 4533 c-29 -7 -45 -32 -45 -69 0 -43 23 -64 70 -64 44 0 70 26
70 72 0 25 -22 58 -40 58 -5 0 -14 2 -22 4 -7 2 -22 2 -33 -1z"/>
<path d="M20325 4533 c-33 -8 -45 -24 -45 -60 0 -56 15 -73 64 -73 52 0 70 17
70 66 0 50 -39 79 -89 67z"/>
<path d="M15502 4494 c-31 -22 -30 -78 2 -99 64 -42 130 41 76 95 -24 24 -48
25 -78 4z"/>
<path d="M10414 4415 c-21 -33 -7 -77 30 -90 32 -11 54 0 75 37 35 62 -66 112
-105 53z"/>
<path d="M18109 4424 c-7 -9 -13 -31 -13 -49 0 -48 19 -65 70 -65 48 0 64 17
64 65 0 48 -16 65 -64 65 -28 0 -48 -6 -57 -16z"/>
<path d="M16445 4253 c-29 -7 -45 -32 -45 -69 0 -43 23 -64 70 -64 44 0 70 26
70 72 0 25 -22 58 -40 58 -5 0 -14 2 -22 4 -7 2 -22 2 -33 -1z"/>
<path d="M20325 4253 c-33 -8 -45 -24 -45 -60 0 -56 15 -73 64 -73 52 0 70 17
70 66 0 50 -39 79 -89 67z"/>
<path d="M18277 4212 c-21 -23 -22 -76 -1 -96 9 -9 32 -16 54 -16 48 0 70 21
70 65 0 18 -7 41 -16 49 -22 22 -87 21 -107 -2z"/>
<path d="M15532 4104 c-46 -32 -20 -107 38 -107 38 0 60 23 60 64 0 29 -31 59
-60 59 -9 0 -26 -7 -38 -16z"/>
<path d="M8790 3967 c-30 -50 -56 -96 -58 -102 -2 -10 1374 -2205 1397 -2228
4 -4 62 -6 129 -5 l122 3 -756 1200 c-416 660 -761 1205 -767 1212 -9 9 -25
-10 -67 -80z"/>
<path d="M10396 4028 c-9 -12 -16 -30 -16 -40 0 -25 36 -58 63 -58 47 0 78 68
47 105 -19 23 -76 19 -94 -7z"/>
<path d="M18446 4004 c-9 -8 -16 -31 -16 -49 0 -44 22 -65 69 -65 63 0 92 56
55 108 -18 27 -84 31 -108 6z"/>
<path d="M16440 3993 c-25 -9 -40 -35 -40 -69 0 -43 23 -64 70 -64 44 0 70 26
70 70 0 33 -10 47 -43 59 -31 12 -34 12 -57 4z"/>
<path d="M20310 3987 c-31 -16 -41 -85 -15 -111 21 -21 88 -21 106 0 17 21 17
81 -1 98 -22 22 -62 28 -90 13z"/>
<path d="M18610 3791 c-15 -29 -12 -87 5 -101 21 -17 84 -15 103 4 19 19 21
78 3 100 -20 24 -97 22 -111 -3z"/>
<path d="M15495 3710 c-20 -23 -23 -63 -5 -85 19 -23 76 -19 94 7 21 30 20 54
-4 78 -25 25 -62 26 -85 0z"/>
<path d="M16440 3713 c-25 -9 -40 -35 -40 -69 0 -43 23 -64 70 -64 44 0 70 26
70 70 0 33 -10 47 -43 59 -31 12 -34 12 -57 4z"/>
<path d="M20310 3707 c-31 -16 -41 -85 -15 -111 21 -21 88 -21 106 0 17 21 17
81 -1 98 -22 22 -62 28 -90 13z"/>
<path d="M10452 3654 c-33 -23 -27 -83 10 -103 25 -14 29 -14 55 5 39 29 41
66 7 93 -32 25 -42 26 -72 5z"/>
<path d="M8574 3619 c-15 -24 -42 -68 -61 -97 -18 -29 -30 -59 -27 -65 4 -7
263 -420 577 -919 l569 -908 124 0 c68 0 124 2 124 4 0 5 -1260 2009 -1270
2020 -5 4 -21 -11 -36 -35z"/>
<path d="M11950 3540 l0 -90 455 0 455 0 0 -505 0 -505 -455 0 -455 0 0 -90 0
-90 1110 0 1110 0 0 90 0 90 -565 0 -565 0 0 505 0 505 565 0 565 0 0 90 0 90
-1110 0 -1110 0 0 -90z"/>
<path d="M18780 3585 c-6 -8 -12 -30 -12 -50 0 -49 16 -65 66 -65 53 0 66 13
66 65 0 23 -5 46 -12 53 -17 17 -93 15 -108 -3z"/>
<path d="M16440 3433 c-25 -9 -40 -35 -40 -69 0 -43 23 -64 70 -64 44 0 70 26
70 70 0 33 -10 47 -43 59 -31 12 -34 12 -57 4z"/>
<path d="M20309 3426 c-31 -15 -39 -84 -14 -110 21 -21 88 -21 106 0 17 21 17
81 -1 99 -21 20 -63 25 -91 11z"/>
<path d="M18949 3374 c-18 -22 -16 -81 3 -100 22 -22 88 -21 105 2 16 21 17
68 3 95 -14 25 -91 27 -111 3z"/>
<path d="M15397 3332 c-36 -40 -9 -102 45 -102 51 0 78 69 40 103 -24 22 -65
21 -85 -1z"/>
<path d="M10544 3265 c-32 -49 11 -106 69 -92 30 8 50 49 38 81 -17 43 -81 50
-107 11z"/>
<path d="M8288 3166 c-32 -52 -58 -97 -58 -100 0 -6 888 -1417 899 -1429 4 -4
63 -6 130 -5 l122 3 -510 810 c-281 445 -514 811 -518 812 -5 2 -34 -40 -65
-91z"/>
<path d="M19117 3162 c-21 -23 -22 -76 -1 -96 9 -9 32 -16 54 -16 48 0 70 21
70 65 0 18 -7 41 -16 49 -22 22 -87 21 -107 -2z"/>
<path d="M16416 3144 c-19 -19 -21 -74 -3 -96 24 -31 98 -28 119 5 13 20 9 61
-8 85 -18 27 -84 31 -108 6z"/>
<path d="M20296 3144 c-21 -20 -21 -88 0 -105 22 -18 81 -16 101 4 20 20 22
79 4 101 -17 21 -85 21 -105 0z"/>
<path d="M15245 2976 c-30 -30 -32 -59 -5 -86 25 -25 51 -25 80 -2 26 21 30
67 9 87 -29 27 -57 27 -84 1z"/>
<path d="M19286 2954 c-9 -8 -16 -31 -16 -49 0 -44 22 -65 69 -65 63 0 92 56
55 108 -18 27 -84 31 -108 6z"/>
<path d="M10722 2924 c-45 -31 -17 -104 41 -104 34 0 57 24 57 60 0 30 -30 60
-60 60 -9 0 -26 -7 -38 -16z"/>
<path d="M16440 2873 c-25 -9 -40 -35 -40 -69 0 -43 23 -64 70 -64 44 0 70 26
70 70 0 33 -10 47 -43 59 -31 12 -34 12 -57 4z"/>
<path d="M20310 2867 c-31 -16 -41 -85 -15 -111 21 -21 88 -21 106 0 17 21 17
81 -1 98 -22 22 -62 28 -90 13z"/>
<path d="M8048 2783 c-31 -48 -58 -94 -62 -101 -5 -8 119 -214 320 -532 l328
-520 123 0 c68 0 123 2 123 5 0 4 -733 1171 -765 1218 -11 16 -18 8 -67 -70z"/>
<path d="M19450 2741 c-15 -29 -12 -87 5 -101 21 -17 84 -15 103 4 19 19 21
78 3 100 -20 24 -97 22 -111 -3z"/>
<path d="M15032 2654 c-26 -18 -30 -65 -6 -88 8 -9 28 -16 44 -16 36 0 60 24
60 60 0 30 -30 60 -60 60 -9 0 -26 -7 -38 -16z"/>
<path d="M10940 2600 c-41 -41 -13 -100 46 -100 39 0 54 16 54 56 0 56 -61 83
-100 44z"/>
<path d="M16422 2574 c-28 -20 -31 -83 -4 -107 45 -40 122 -6 122 53 0 59 -67
90 -118 54z"/>
<path d="M20297 2572 c-23 -25 -22 -85 1 -105 23 -21 71 -22 97 -3 14 10 20
26 20 56 0 30 -6 46 -20 56 -27 20 -79 18 -98 -4z"/>
<path d="M19620 2535 c-6 -8 -12 -30 -12 -50 0 -49 16 -65 66 -65 53 0 66 13
66 65 0 23 -5 46 -12 53 -17 17 -93 15 -108 -3z"/>
<path d="M14767 2362 c-37 -41 -11 -102 42 -102 55 0 80 61 41 100 -25 25 -62
26 -83 2z"/>
<path d="M11223 2330 c-27 -11 -39 -53 -25 -84 14 -31 57 -41 88 -21 32 21 33
77 2 99 -25 18 -33 19 -65 6z"/>
<path d="M19789 2324 c-18 -22 -16 -81 3 -100 22 -22 88 -21 105 2 16 21 17
68 3 95 -14 25 -91 27 -111 3z"/>
<path d="M16416 2284 c-20 -19 -21 -74 -2 -99 20 -27 92 -27 112 0 18 25 18
65 -2 93 -18 27 -84 31 -108 6z"/>
<path d="M20296 2284 c-20 -19 -21 -87 -3 -103 27 -22 72 -24 97 -3 27 22 33
79 11 106 -17 21 -85 21 -105 0z"/>
<path d="M14453 2104 c-15 -23 -15 -29 -2 -52 31 -54 87 -55 109 -2 10 25 10
34 -4 55 -23 36 -79 35 -103 -1z"/>
<path d="M19957 2112 c-21 -23 -22 -76 -1 -96 9 -9 32 -16 54 -16 48 0 70 21
70 65 0 18 -7 41 -16 49 -22 22 -87 21 -107 -2z"/>
<path d="M11522 2084 c-26 -18 -30 -65 -6 -88 8 -9 28 -16 44 -16 36 0 60 24
60 60 0 30 -30 60 -60 60 -9 0 -26 -7 -38 -16z"/>
<path d="M16416 2004 c-20 -19 -21 -74 -2 -99 20 -27 92 -27 112 0 18 25 18
65 -2 93 -18 27 -84 31 -108 6z"/>
<path d="M20296 2004 c-20 -19 -21 -87 -3 -103 27 -22 72 -24 97 -3 27 22 33
79 11 106 -17 21 -85 21 -105 0z"/>
<path d="M14132 1924 c-34 -23 -28 -84 10 -102 64 -30 118 48 68 98 -24 24
-48 25 -78 4z"/>
<path d="M20126 1904 c-9 -8 -16 -31 -16 -49 0 -44 22 -65 69 -65 63 0 92 56
55 108 -18 27 -84 31 -108 6z"/>
<path d="M11860 1890 c-39 -39 -14 -100 43 -100 33 0 57 24 57 59 0 55 -61 80
-100 41z"/>
<path d="M13762 1778 c-22 -28 -22 -55 -1 -81 25 -32 61 -35 89 -7 24 24 25
48 4 78 -17 25 -74 31 -92 10z"/>
<path d="M12240 1767 c-36 -18 -41 -78 -8 -101 30 -21 54 -20 78 4 28 28 25
64 -6 89 -31 24 -31 25 -64 8z"/>
<path d="M16416 1724 c-20 -19 -21 -74 -2 -99 20 -27 92 -27 112 0 18 25 18
65 -2 93 -18 27 -84 31 -108 6z"/>
<path d="M20296 1724 c-20 -19 -21 -87 -3 -103 27 -22 72 -24 97 -3 27 22 33
79 11 106 -17 21 -85 21 -105 0z"/>
<path d="M13399 1696 c-45 -23 -42 -86 6 -108 55 -25 105 35 72 86 -19 29 -48
37 -78 22z"/>
<path d="M12620 1687 c-37 -19 -41 -80 -6 -102 33 -22 73 -13 88 20 15 33 3
69 -27 83 -31 14 -25 14 -55 -1z"/>
<path d="M12996 1654 c-22 -21 -20 -67 2 -87 40 -37 102 -7 102 49 0 46 -71
72 -104 38z"/>
<path d="M20163 1110 c-41 -17 -45 -58 -41 -500 3 -300 8 -426 17 -455 19 -59
66 -100 129 -114 73 -15 184 -14 206 2 34 25 40 177 9 208 -5 5 -27 12 -49 16
-21 3 -45 10 -51 16 -10 7 -13 97 -13 388 0 256 -4 386 -11 402 -6 14 -22 30
-36 36 -28 13 -128 14 -160 1z"/>
<path d="M14280 1018 c-48 -18 -60 -48 -60 -155 l0 -93 -40 0 c-52 0 -76 -25
-85 -85 -16 -103 14 -159 83 -157 l39 2 6 -153 c3 -83 11 -170 17 -192 19 -62
84 -118 163 -140 79 -21 189 -18 213 7 37 37 36 167 -2 195 -10 7 -36 13 -59
13 -22 0 -51 7 -63 16 -21 14 -22 22 -22 136 l0 120 60 -7 c67 -8 125 6 140
35 6 10 10 50 10 88 0 103 -14 116 -124 121 l-86 3 0 78 c0 102 -8 138 -35
156 -31 20 -113 26 -155 12z"/>
<path d="M16344 1019 c-51 -15 -58 -32 -62 -145 l-4 -104 -37 0 c-54 0 -72
-18 -82 -81 -17 -109 9 -164 80 -161 l38 2 6 -148 c9 -217 29 -265 132 -317
53 -27 70 -30 151 -30 75 0 96 3 112 18 42 38 37 173 -8 197 -10 6 -37 10 -59
10 -71 0 -81 20 -81 156 l0 116 60 -7 c66 -8 125 6 139 33 10 18 14 62 12 125
-1 26 -9 46 -26 62 -22 22 -32 25 -105 25 l-80 0 0 93 c0 54 -6 102 -13 117
-21 42 -102 60 -173 39z"/>
<path d="M2148 780 c-116 -20 -219 -94 -269 -195 -102 -207 -12 -467 189 -546
48 -19 77 -23 177 -23 197 -1 285 35 285 114 0 110 -62 153 -165 115 -60 -21
-158 -19 -205 5 -34 17 -60 45 -60 64 0 3 83 6 184 6 174 0 185 1 217 23 87
58 94 198 16 314 -71 106 -204 150 -369 123z m150 -237 c29 -25 36 -58 17 -77
-13 -13 -38 -16 -116 -16 -106 0 -114 4 -83 49 40 57 139 81 182 44z"/>
<path d="M4790 780 c-72 -11 -99 -22 -139 -56 -69 -58 -89 -164 -51 -267 32
-86 99 -134 227 -162 86 -19 113 -31 113 -49 0 -38 -102 -36 -180 4 -69 35
-128 39 -153 12 -9 -10 -26 -39 -37 -65 -18 -41 -19 -51 -8 -74 16 -32 103
-78 178 -94 70 -15 230 -6 292 16 54 19 107 69 124 117 21 56 17 162 -7 213
-33 69 -88 99 -239 130 -46 10 -83 24 -95 36 -20 20 -20 20 -1 35 28 20 107
17 168 -6 29 -11 60 -20 69 -20 32 0 89 86 89 134 0 65 -201 119 -350 96z"/>
<path d="M8604 775 c-181 -39 -294 -184 -294 -376 0 -122 58 -248 143 -313 80
-61 237 -89 377 -67 167 26 218 97 147 202 -27 41 -62 47 -138 25 -97 -29
-188 -19 -236 26 -47 44 -36 48 153 48 198 0 229 8 264 65 28 45 28 162 -1
225 -65 144 -223 207 -415 165z m170 -236 c31 -24 34 -64 7 -79 -20 -10 -211
-15 -211 -5 0 4 7 19 15 34 34 66 135 93 189 50z"/>
<path d="M11682 775 c-115 -26 -208 -98 -258 -201 -39 -79 -45 -207 -15 -301
39 -119 108 -195 217 -236 77 -28 268 -31 354 -4 92 27 125 81 95 153 -32 77
-62 88 -159 59 -105 -32 -228 -8 -254 50 l-12 25 183 0 c206 0 235 8 269 71
26 48 24 159 -3 219 -63 139 -234 207 -417 165z m172 -236 c31 -24 34 -64 7
-79 -20 -10 -211 -15 -211 -5 0 4 7 19 15 34 34 66 135 93 189 50z"/>
<path d="M17637 780 c-111 -28 -218 -115 -263 -213 -26 -56 -29 -72 -29 -167
0 -124 17 -168 97 -256 164 -179 458 -162 599 35 53 74 72 142 67 244 -3 64
-10 96 -32 145 -37 80 -124 162 -205 193 -64 24 -178 33 -234 19z m148 -254
c95 -40 99 -192 6 -241 -44 -22 -102 -19 -142 8 -42 28 -59 60 -59 112 0 100
99 161 195 121z"/>
<path d="M19017 779 c-107 -25 -210 -108 -259 -207 -31 -62 -33 -74 -33 -167
0 -93 2 -105 32 -166 39 -80 111 -150 191 -187 50 -24 69 -27 162 -27 96 0
110 3 165 29 76 38 149 110 183 184 24 51 27 69 27 167 0 130 -16 175 -91 256
-101 107 -239 151 -377 118z m153 -254 c49 -25 70 -62 70 -120 0 -38 -6 -60
-21 -79 -61 -77 -180 -74 -229 7 -70 115 60 254 180 192z"/>
<path d="M7532 765 c-18 -8 -46 -24 -62 -35 -34 -24 -40 -25 -40 -5 0 31 -46
47 -125 43 -117 -5 -109 17 -113 -350 -2 -216 1 -320 9 -339 26 -65 198 -67
228 -3 7 16 11 93 11 209 l0 185 29 32 c24 28 35 32 72 32 24 -1 63 -5 87 -9
29 -5 51 -4 67 5 53 28 80 166 41 209 -36 40 -141 53 -204 26z"/>
<path d="M149 751 l-24 -19 -3 -304 c-2 -166 0 -318 3 -336 5 -27 14 -37 43
-49 52 -22 146 -14 175 15 21 21 22 33 27 215 5 204 12 232 54 243 42 10 70 0
93 -35 22 -32 23 -43 23 -207 0 -195 6 -218 58 -235 52 -17 139 -7 165 20 21
20 22 33 27 220 4 179 7 201 24 220 15 17 29 21 60 19 33 -2 44 -9 63 -37 22
-32 23 -43 23 -207 0 -195 6 -218 58 -235 52 -17 139 -7 165 20 21 21 22 28
22 239 -1 233 -12 301 -58 367 -74 104 -207 137 -312 76 -27 -16 -61 -40 -74
-55 l-24 -25 -38 39 c-48 50 -96 70 -166 70 -62 0 -114 -21 -142 -56 -22 -28
-31 -30 -31 -9 0 9 -11 27 -25 40 -21 22 -33 25 -93 25 -54 0 -75 -4 -93 -19z"/>
<path d="M3425 757 c-57 -22 -90 -45 -136 -94 -85 -89 -114 -168 -107 -286 10
-162 128 -306 277 -338 65 -14 150 3 192 38 16 14 31 24 32 22 1 -2 7 -13 13
-24 26 -48 166 -58 208 -15 20 20 21 34 24 313 2 160 0 307 -3 325 -10 55 -36
72 -109 72 -81 0 -113 -12 -127 -47 -7 -18 -13 -23 -16 -14 -3 7 -28 24 -57
37 -57 26 -139 31 -191 11z m187 -248 c25 -13 58 -73 58 -106 0 -36 -36 -93
-70 -111 -71 -37 -170 27 -170 109 0 94 96 151 182 108z"/>
<path d="M5830 752 l-25 -20 0 -214 c0 -198 2 -217 23 -269 43 -108 137 -189
241 -209 73 -14 124 -3 182 37 33 22 49 29 49 19 0 -7 8 -23 18 -35 33 -40
163 -40 203 0 18 18 19 35 19 339 l0 321 -25 24 c-21 22 -33 25 -98 25 -114 0
-111 6 -117 -217 -6 -204 -10 -221 -63 -253 -57 -35 -140 -19 -169 33 -9 15
-15 84 -18 209 -6 226 -3 221 -118 226 -66 3 -81 1 -102 -16z"/>
<path d="M9712 758 c-39 -19 -43 -64 -40 -380 3 -288 4 -298 24 -319 36 -36
153 -39 200 -5 17 13 19 32 24 209 5 179 7 198 26 224 22 29 50 39 90 29 42
-11 49 -39 54 -243 5 -181 6 -194 27 -214 26 -27 113 -37 165 -20 52 17 58 40
58 234 0 144 3 178 18 207 18 37 49 48 98 36 42 -11 49 -39 54 -243 5 -181 6
-194 27 -214 27 -27 113 -37 166 -20 55 19 60 40 55 283 -5 235 -14 282 -68
357 -60 82 -191 115 -286 72 -23 -10 -58 -36 -78 -56 l-38 -37 -29 35 c-39 48
-105 77 -174 77 -61 0 -97 -14 -134 -54 -29 -31 -41 -33 -41 -7 0 37 -46 61
-114 60 -33 0 -71 -5 -84 -11z"/>
<path d="M12792 760 c-12 -5 -27 -22 -33 -36 -6 -17 -9 -142 -7 -335 3 -306 3
-309 26 -331 19 -20 33 -23 97 -23 64 0 78 3 97 23 22 21 23 32 28 211 5 183
6 190 29 215 31 33 79 47 127 36 80 -18 93 -58 94 -283 0 -82 4 -157 10 -167
32 -59 210 -49 225 13 4 13 5 116 3 228 l-3 205 -33 66 c-63 128 -169 194
-297 186 -52 -3 -72 -10 -109 -36 -52 -37 -56 -38 -56 -13 0 34 -38 51 -110
50 -36 0 -75 -4 -88 -9z"/>
</g>
</svg>
